FILE "Escaping the Rabbit Hole꞉ How to Debunk Conspiracy Theories Using Facts, Logic, and Respect [B07H39NLMS].m4b" MP3
TRACK 1 AUDIO
  TITLE "Chapter 1"
  INDEX 01 0:00:00
TRACK 2 AUDIO
  TITLE "Chapter 2"
  INDEX 01 12:38:48
TRACK 3 AUDIO
  TITLE "Chapter 3"
  INDEX 01 20:06:27
TRACK 4 AUDIO
  TITLE "Chapter 4"
  INDEX 01 23:16:05
TRACK 5 AUDIO
  TITLE "Chapter 5"
  INDEX 01 29:52:22
TRACK 6 AUDIO
  TITLE "Chapter 6"
  INDEX 01 33:47:38
TRACK 7 AUDIO
  TITLE "Chapter 7"
  INDEX 01 36:38:45
TRACK 8 AUDIO
  TITLE "Chapter 8"
  INDEX 01 39:22:68
TRACK 9 AUDIO
  TITLE "Chapter 9"
  INDEX 01 46:52:54
TRACK 10 AUDIO
  TITLE "Chapter 10"
  INDEX 01 69:05:20
TRACK 11 AUDIO
  TITLE "Chapter 11"
  INDEX 01 72:09:12
TRACK 12 AUDIO
  TITLE "Chapter 12"
  INDEX 01 80:19:18
TRACK 13 AUDIO
  TITLE "Chapter 13"
  INDEX 01 92:35:72
TRACK 14 AUDIO
  TITLE "Chapter 14"
  INDEX 01 103:23:67
TRACK 15 AUDIO
  TITLE "Chapter 15"
  INDEX 01 131:38:40
TRACK 16 AUDIO
  TITLE "Chapter 16"
  INDEX 01 142:58:48
TRACK 17 AUDIO
  TITLE "Chapter 17"
  INDEX 01 149:15:45
TRACK 18 AUDIO
  TITLE "Chapter 18"
  INDEX 01 155:14:68
TRACK 19 AUDIO
  TITLE "Chapter 19"
  INDEX 01 162:26:25
TRACK 20 AUDIO
  TITLE "Chapter 20"
  INDEX 01 168:51:03
TRACK 21 AUDIO
  TITLE "Chapter 21"
  INDEX 01 171:47:21
TRACK 22 AUDIO
  TITLE "Chapter 22"
  INDEX 01 176:32:10
TRACK 23 AUDIO
  TITLE "Chapter 23"
  INDEX 01 180:33:71
TRACK 24 AUDIO
  TITLE "Chapter 24"
  INDEX 01 185:13:07
TRACK 25 AUDIO
  TITLE "Chapter 25"
  INDEX 01 189:48:19
TRACK 26 AUDIO
  TITLE "Chapter 26"
  INDEX 01 192:38:48
TRACK 27 AUDIO
  TITLE "Chapter 27"
  INDEX 01 197:59:13
TRACK 28 AUDIO
  TITLE "Chapter 28"
  INDEX 01 202:21:14
TRACK 29 AUDIO
  TITLE "Chapter 29"
  INDEX 01 204:01:23
TRACK 30 AUDIO
  TITLE "Chapter 30"
  INDEX 01 209:23:69
TRACK 31 AUDIO
  TITLE "Chapter 31"
  INDEX 01 213:17:49
TRACK 32 AUDIO
  TITLE "Chapter 32"
  INDEX 01 216:45:36
TRACK 33 AUDIO
  TITLE "Chapter 33"
  INDEX 01 224:32:46
TRACK 34 AUDIO
  TITLE "Chapter 34"
  INDEX 01 229:21:18
TRACK 35 AUDIO
  TITLE "Chapter 35"
  INDEX 01 247:58:09
TRACK 36 AUDIO
  TITLE "Chapter 36"
  INDEX 01 266:15:06
TRACK 37 AUDIO
  TITLE "Chapter 37"
  INDEX 01 276:55:33
TRACK 38 AUDIO
  TITLE "Chapter 38"
  INDEX 01 288:50:21
TRACK 39 AUDIO
  TITLE "Chapter 39"
  INDEX 01 298:56:66
TRACK 40 AUDIO
  TITLE "Chapter 40"
  INDEX 01 307:10:47
TRACK 41 AUDIO
  TITLE "Chapter 41"
  INDEX 01 316:13:52
TRACK 42 AUDIO
  TITLE "Chapter 42"
  INDEX 01 321:47:49
TRACK 43 AUDIO
  TITLE "Chapter 43"
  INDEX 01 331:13:60
TRACK 44 AUDIO
  TITLE "Chapter 44"
  INDEX 01 345:31:72
TRACK 45 AUDIO
  TITLE "Chapter 45"
  INDEX 01 349:23:59
TRACK 46 AUDIO
  TITLE "Chapter 46"
  INDEX 01 353:20:23
TRACK 47 AUDIO
  TITLE "Chapter 47"
  INDEX 01 355:38:17
TRACK 48 AUDIO
  TITLE "Chapter 48"
  INDEX 01 369:48:16
TRACK 49 AUDIO
  TITLE "Chapter 49"
  INDEX 01 382:31:31
TRACK 50 AUDIO
  TITLE "Chapter 50"
  INDEX 01 395:43:68
TRACK 51 AUDIO
  TITLE "Chapter 51"
  INDEX 01 409:01:73
TRACK 52 AUDIO
  TITLE "Chapter 52"
  INDEX 01 413:39:13
TRACK 53 AUDIO
  TITLE "Chapter 53"
  INDEX 01 421:43:03
TRACK 54 AUDIO
  TITLE "Chapter 54"
  INDEX 01 427:56:62
TRACK 55 AUDIO
  TITLE "Chapter 55"
  INDEX 01 435:42:47
TRACK 56 AUDIO
  TITLE "Chapter 56"
  INDEX 01 438:26:62
TRACK 57 AUDIO
  TITLE "Chapter 57"
  INDEX 01 447:59:60
TRACK 58 AUDIO
  TITLE "Chapter 58"
  INDEX 01 456:08:47
TRACK 59 AUDIO
  TITLE "Chapter 59"
  INDEX 01 477:21:24
TRACK 60 AUDIO
  TITLE "Chapter 60"
  INDEX 01 497:21:00
TRACK 61 AUDIO
  TITLE "Chapter 61"
  INDEX 01 501:10:55
TRACK 62 AUDIO
  TITLE "Chapter 62"
  INDEX 01 503:09:15
TRACK 63 AUDIO
  TITLE "Chapter 63"
  INDEX 01 504:53:56
TRACK 64 AUDIO
  TITLE "Chapter 64"
  INDEX 01 506:34:00
TRACK 65 AUDIO
  TITLE "Chapter 65"
  INDEX 01 507:56:22
TRACK 66 AUDIO
  TITLE "Chapter 66"
  INDEX 01 510:49:07
TRACK 67 AUDIO
  TITLE "Chapter 67"
  INDEX 01 513:34:67
TRACK 68 AUDIO
  TITLE "Chapter 68"
  INDEX 01 526:10:07
TRACK 69 AUDIO
  TITLE "Chapter 69"
  INDEX 01 538:51:63
TRACK 70 AUDIO
  TITLE "Chapter 70"
  INDEX 01 545:29:03
TRACK 71 AUDIO
  TITLE "Chapter 71"
  INDEX 01 551:58:61
TRACK 72 AUDIO
  TITLE "Chapter 72"
  INDEX 01 554:07:51
TRACK 73 AUDIO
  TITLE "Chapter 73"
  INDEX 01 558:29:18
TRACK 74 AUDIO
  TITLE "Chapter 74"
  INDEX 01 564:02:57
TRACK 75 AUDIO
  TITLE "Chapter 75"
  INDEX 01 566:24:72
TRACK 76 AUDIO
  TITLE "Chapter 76"
  INDEX 01 578:39:31
TRACK 77 AUDIO
  TITLE "Chapter 77"
  INDEX 01 584:20:42
TRACK 78 AUDIO
  TITLE "Chapter 78"
  INDEX 01 587:52:21
TRACK 79 AUDIO
  TITLE "Chapter 79"
  INDEX 01 596:37:14
TRACK 80 AUDIO
  TITLE "Chapter 80"
  INDEX 01 601:54:59
TRACK 81 AUDIO
  TITLE "Chapter 81"
  INDEX 01 606:09:11
TRACK 82 AUDIO
  TITLE "Chapter 82"
  INDEX 01 616:03:60
TRACK 83 AUDIO
  TITLE "Chapter 83"
  INDEX 01 625:25:44
TRACK 84 AUDIO
  TITLE "Chapter 84"
  INDEX 01 628:33:64
TRACK 85 AUDIO
  TITLE "Chapter 85"
  INDEX 01 636:53:13
TRACK 86 AUDIO
  TITLE "Chapter 86"
  INDEX 01 641:25:16
TRACK 87 AUDIO
  TITLE "Chapter 87"
  INDEX 01 655:03:30
TRACK 88 AUDIO
  TITLE "Chapter 88"
  INDEX 01 658:08:00
TRACK 89 AUDIO
  TITLE "Chapter 89"
  INDEX 01 662:44:69
